<svg xmlns="http://www.w3.org/2000/svg" xmlns:xlink="http://www.w3.org/1999/xlink" width="168.898" height="56.12" viewBox="0 0 168.898 56.12">
  <defs>
    <linearGradient id="linear-gradient" x1="0.313" y1="-0.459" x2="0.696" y2="1.751" gradientUnits="objectBoundingBox">
      <stop offset="0" stop-color="#0083c0"/>
      <stop offset="0.519" stop-color="#094f7c"/>
      <stop offset="1" stop-color="#121e3a"/>
    </linearGradient>
    <linearGradient id="linear-gradient-2" x1="0.36" y1="-2.402" x2="0.547" y2="1.522" xlink:href="#linear-gradient"/>
    <linearGradient id="linear-gradient-3" x1="0.32" y1="-1.127" x2="0.617" y2="1.649" xlink:href="#linear-gradient"/>
    <linearGradient id="linear-gradient-4" x1="0.364" y1="-0.57" x2="1.206" y2="3.117" xlink:href="#linear-gradient"/>
  </defs>
  <g id="Grupo_3726" data-name="Grupo 3726" transform="translate(-38.12 -18.357)">
    <g id="Grupo_52" data-name="Grupo 52" transform="translate(38.12 18.357)">
      <g id="Grupo_49" data-name="Grupo 49" transform="translate(0 6.805)">
        <path id="Caminho_124" data-name="Caminho 124" d="M240.166,154.043h9.28a11.98,11.98,0,0,1,6.032,1.573,11.766,11.766,0,0,1,4.4,4.358,12.158,12.158,0,0,1,1.633,6.273,15.825,15.825,0,0,1-3.317,9.55,17.742,17.742,0,0,1-13.918,6.824H234.093q-.72,0-.72-.582a1.556,1.556,0,0,1,.04-.26l5.712-26.875A.968.968,0,0,1,240.166,154.043Zm13.888,12.725a6.136,6.136,0,0,0-.752-3.035,5.335,5.335,0,0,0-2.123-2.115,6.483,6.483,0,0,0-3.2-.762H245.3l-3.167,14.952h2.687a8.605,8.605,0,0,0,4.028-1,9.935,9.935,0,0,0,3.267-2.715,9.153,9.153,0,0,0,1.783-3.738A8.714,8.714,0,0,0,254.055,166.768Z" transform="translate(-233.373 -154.043)" fill="#121e3a"/>
        <path id="Caminho_125" data-name="Caminho 125" d="M416.9,154.043h19.14q.683,0,.682.58a1.7,1.7,0,0,1-.04.282l-1.042,4.93a.956.956,0,0,1-1.023.842H422.076l-1,4.75h9.519q.8,0,.8.62a1.738,1.738,0,0,1-.04.262l-.862,3.968a1,1,0,0,1-1.1.842h-9.52l-1.062,4.91h12.907c.48,0,.722.207.722.622a.956.956,0,0,1-.02.22l-1.063,4.91a.952.952,0,0,1-1.022.842h-19.5q-.723,0-.722-.582a1.737,1.737,0,0,1,.04-.26l5.712-26.875A.969.969,0,0,1,416.9,154.043Z" transform="translate(-381.242 -154.043)" fill="#121e3a"/>
        <path id="Caminho_126" data-name="Caminho 126" d="M571.194,154.273a.981.981,0,0,1,.642-.23h5.752c.453,0,.682.193.682.58a1.761,1.761,0,0,1-.042.282l-4.428,20.9h10.662q.7,0,.7.56a1.7,1.7,0,0,1-.04.282l-1.1,5.13a.943.943,0,0,1-1,.842H565.763q-.7,0-.7-.562a1.684,1.684,0,0,1,.04-.28l5.712-26.875A1.139,1.139,0,0,1,571.194,154.273Z" transform="translate(-510.882 -154.043)" fill="#121e3a"/>
        <path id="Caminho_127" data-name="Caminho 127" d="M703.607,154.043H724.49q.682,0,.682.58a1.708,1.708,0,0,1-.04.282l-1.022,4.87a.96.96,0,0,1-1.022.862h-6.835l-4.508,21.144a.954.954,0,0,1-1.023.842H705.17q-.72,0-.72-.582a1.535,1.535,0,0,1,.04-.26L709,160.636H702.2q-.7,0-.7-.582a1.679,1.679,0,0,1,.04-.28l1.021-4.87A.97.97,0,0,1,703.607,154.043Z" transform="translate(-625.037 -154.043)" fill="#121e3a"/>
        <path id="Caminho_128" data-name="Caminho 128" d="M811.613,154.043h4.71a.9.9,0,0,1,.962.862l4.79,26.875a.961.961,0,0,1,.02.22c0,.415-.242.622-.722.622h-5.532a.885.885,0,0,1-.982-.842l-.542-3.768h-10.5l-2.1,3.768a1.415,1.415,0,0,1-1.322.842h-5.933q-.56,0-.56-.36a1.023,1.023,0,0,1,.18-.482L810.229,154.9A1.536,1.536,0,0,1,811.613,154.043Zm1.823,17.777-1.243-8.739-4.89,8.739Z" transform="translate(-702.338 -154.043)" fill="#121e3a"/>
      </g>
      <g id="Grupo_51" data-name="Grupo 51" transform="translate(108.917)">
        <path id="Caminho_129" data-name="Caminho 129" d="M1078.163,151.134a.227.227,0,0,0,.306.328l26.972-17.7a1.312,1.312,0,0,0,.381-1.865,17.686,17.686,0,0,0-5.711-5.154c-.136-.078-.274-.151-.41-.225a1.317,1.317,0,0,0-1.567.234S1081.917,146.209,1078.163,151.134Z" transform="translate(-1049.048 -124.08)" fill="url(#linear-gradient)"/>
        <path id="Caminho_130" data-name="Caminho 130" d="M956.174,284.159l-37.4,9.426-.029.008-18.576,4.681h37.31a26.6,26.6,0,0,0,8.456-2.5,26.118,26.118,0,0,0,9.387-7.59,23.626,23.626,0,0,0,1.832-2.717A.886.886,0,0,0,956.174,284.159Z" transform="translate(-898.17 -255.077)" fill="url(#linear-gradient-2)"/>
        <path id="Caminho_131" data-name="Caminho 131" d="M1084.7,197.249a.986.986,0,0,0-1.44-.688s-27.318,15.427-33.733,19.222a.227.227,0,0,0,.178.413l33.184-8.839a2.166,2.166,0,0,0,1.562-1.611c.127-.586.239-1.176.327-1.777a23.517,23.517,0,0,0,.239-3.129A20.015,20.015,0,0,0,1084.7,197.249Z" transform="translate(-1025.036 -182.711)" fill="url(#linear-gradient-3)"/>
        <g id="Grupo_50" data-name="Grupo 50" transform="translate(27.905)">
          <path id="Caminho_132" data-name="Caminho 132" d="M1086.416,112.425q-.621-.042-1.255-.042h-13.786l-.369,0a25,25,0,0,1,4.1,19.119.227.227,0,0,0,.414.163l11.605-17.566A1.02,1.02,0,0,0,1086.416,112.425Z" transform="translate(-1071.007 -112.383)" fill="url(#linear-gradient-4)"/>
        </g>
      </g>
      <path id="Caminho_3540" data-name="Caminho 3540" d="M-50.388,0H-48.9V-7.032h2.664V-8.4h-6.816v1.368h2.664Zm9.312,0h6.288V-1.32H-39.6V-3.576h4.212V-4.9H-39.6V-7.08h4.752V-8.4h-6.228ZM-26.5.12c1.764,0,3-.936,3-2.508v-.024c0-1.392-.924-2.028-2.7-2.46-1.608-.384-1.992-.672-1.992-1.32v-.024c0-.552.5-1,1.368-1a3.815,3.815,0,0,1,2.28.864l.792-1.116A4.656,4.656,0,0,0-26.8-8.52c-1.668,0-2.868,1-2.868,2.436v.024c0,1.548,1.008,2.076,2.8,2.508,1.56.36,1.9.684,1.9,1.284v.024c0,.636-.576,1.056-1.488,1.056A3.868,3.868,0,0,1-29.112-2.28L-30-1.224A5.174,5.174,0,0,0-26.5.12ZM-16.272,0h1.488V-7.032h2.664V-8.4h-6.816v1.368h2.664ZM-6.96,0H-.672V-1.32H-5.484V-3.576h4.212V-4.9H-5.484V-7.08H-.732V-8.4H-6.96Z" transform="translate(120 56)" fill="#10264e"/>
    </g>
  </g>
</svg>
